<?xml version="1.0" encoding="utf-8"?>
<!-- Generator: Adobe Illustrator 16.0.4, SVG Export Plug-In . SVG Version: 6.00 Build 0)  -->
<!DOCTYPE svg PUBLIC "-//W3C//DTD SVG 1.1//EN" "http://www.w3.org/Graphics/SVG/1.1/DTD/svg11.dtd">
<svg version="1.1" id="Слой_1" xmlns="http://www.w3.org/2000/svg" xmlns:xlink="http://www.w3.org/1999/xlink" x="0px" y="0px"
	 width="90px" height="90px" viewBox="0 0 90 90" enable-background="new 0 0 90 90" xml:space="preserve">
<path d="M74.47,35.553H17.535c-1.588,0-2.876,1.368-2.876,3.058v13.247c0,1.688,1.288,3.058,2.876,3.058H74.47
	c1.587,0,2.872-1.368,2.872-3.058v-13.25C77.342,36.921,76.057,35.553,74.47,35.553z M56.928,48.187H21.081v-5.909h35.847V48.187z
	 M69.817,47.985c-1.429,0-2.587-1.233-2.587-2.752c0-1.521,1.158-2.752,2.587-2.752s2.589,1.232,2.589,2.752
	S71.248,47.985,69.817,47.985z M74.47,57.754H17.535c-1.588,0-2.876,1.369-2.876,3.058v13.25c0,1.688,1.288,3.056,2.876,3.056H74.47
	c1.587,0,2.872-1.366,2.872-3.056v-13.25C77.342,59.123,76.057,57.754,74.47,57.754z M56.928,70.39H21.081v-5.907h35.847V70.39z
	 M69.817,70.188c-1.429,0-2.587-1.234-2.587-2.75c0-1.521,1.158-2.754,2.587-2.754s2.589,1.232,2.589,2.754
	C72.406,68.953,71.248,70.188,69.817,70.188z M74.47,12.883H17.535c-1.588,0-2.876,1.368-2.876,3.057v13.249
	c0,1.688,1.288,3.056,2.876,3.056H74.47c1.587,0,2.872-1.369,2.872-3.056v-13.25C77.342,14.252,76.057,12.883,74.47,12.883z
	 M56.928,25.52H21.081v-5.91h35.847V25.52z M69.817,25.315c-1.429,0-2.587-1.232-2.587-2.752c0-1.519,1.158-2.75,2.587-2.75
	s2.589,1.231,2.589,2.75C72.406,24.082,71.248,25.315,69.817,25.315z"/>
</svg>
